<?xml version="1.0" encoding="utf-8"?>
<!-- Generator: Adobe Illustrator 26.3.1, SVG Export Plug-In . SVG Version: 6.00 Build 0)  -->
<svg version="1.1" id="Layer_1" xmlns="http://www.w3.org/2000/svg" xmlns:xlink="http://www.w3.org/1999/xlink" x="0px" y="0px"
	 viewBox="0 0 145 21" style="enable-background:new 0 0 145 21;" xml:space="preserve">
<style type="text/css">
	.st0{fill:#11C945;stroke:#11C945;stroke-width:1.5;stroke-miterlimit:10;}
	.st1{fill:#11C945;}
</style>
<g>
	<path class="st0" d="M114.3,18.1h-1.6v-6.9h-7.2v6.9h-1.6V3h1.6v6.8h7.2V3h1.6V18.1z"/>
	<path class="st0" d="M129.1,13.1c0,1.5-0.5,2.7-1.5,3.7c-1,1-2.3,1.4-3.8,1.4c-1.5,0-2.8-0.5-3.8-1.4c-1-1-1.5-2.2-1.5-3.7V3h1.6
		v10c0,1.1,0.3,2.1,1,2.8c0.7,0.7,1.6,1,2.7,1c1.1,0,2-0.3,2.7-1c0.7-0.7,1-1.6,1-2.8V3h1.6V13.1z"/>
	<path class="st0" d="M143.7,13.9c0,1.3-0.4,2.4-1.2,3.1c-0.8,0.7-1.9,1.1-3.3,1.1h-5.9V3h5.7c1.3,0,2.4,0.4,3.2,1.1
		c0.8,0.7,1.2,1.7,1.2,3c0,0.8-0.2,1.5-0.6,2.1s-1,1-1.6,1.3C142.9,11,143.7,12.2,143.7,13.9z M141.8,7c0-0.9-0.3-1.5-0.8-2
		c-0.5-0.4-1.3-0.7-2.2-0.7h-4v5.3h4c0.9,0,1.6-0.2,2.2-0.7S141.8,7.9,141.8,7z M142.1,13.9c0-0.9-0.3-1.5-0.8-2
		c-0.5-0.5-1.3-0.7-2.2-0.7h-4.1v5.6h4.1c0.9,0,1.7-0.3,2.2-0.8C141.8,15.4,142.1,14.7,142.1,13.9z"/>
</g>
<g>
	<path class="st1" d="M97.9,23.6h-1.5V-2.6h1.5V23.6z"/>
</g>
<g>
	<path class="st1" d="M12.2,13.8c-0.2,1.4-0.8,2.5-1.8,3.3c-1,0.8-2.1,1.2-3.5,1.2c-1.5,0-2.8-0.5-3.9-1.6c-0.7-0.7-1.1-1.4-1.3-2.4
		c-0.1-0.6-0.2-1.9-0.2-3.7c0-1.9,0.1-3.1,0.2-3.7C2,5.9,2.4,5.1,3.1,4.5c1.1-1.1,2.3-1.6,3.9-1.6c1.4,0,2.5,0.4,3.5,1.2
		C11.4,4.9,12,6,12.2,7.4h-1.7c-0.2-0.9-0.6-1.7-1.2-2.2C8.7,4.6,7.9,4.4,6.9,4.4C5.9,4.4,5,4.7,4.3,5.4C3.9,5.9,3.6,6.5,3.4,7.2
		C3.3,7.8,3.3,9,3.3,10.6c0,1.7,0.1,2.8,0.2,3.4c0.1,0.7,0.4,1.3,0.9,1.8c0.7,0.7,1.6,1.1,2.6,1.1c0.9,0,1.7-0.3,2.4-0.8
		c0.6-0.6,1.1-1.3,1.3-2.2H12.2z"/>
	<path class="st1" d="M25.8,10.6c0,1.9-0.1,3.1-0.2,3.7c-0.2,0.9-0.6,1.7-1.3,2.4c-1.1,1.1-2.3,1.6-3.9,1.6s-2.8-0.5-3.9-1.6
		c-0.7-0.7-1.1-1.4-1.3-2.4c-0.1-0.6-0.2-1.9-0.2-3.7c0-1.9,0.1-3.1,0.2-3.7c0.2-0.9,0.6-1.7,1.3-2.4c1.1-1.1,2.3-1.6,3.9-1.6
		s2.8,0.5,3.9,1.6c0.7,0.7,1.1,1.4,1.3,2.4C25.8,7.5,25.8,8.8,25.8,10.6z M24.2,10.6c0-1.7-0.1-2.8-0.2-3.4
		c-0.1-0.7-0.4-1.3-0.9-1.8c-0.7-0.7-1.6-1.1-2.6-1.1c-1,0-1.9,0.4-2.6,1.1c-0.5,0.5-0.8,1.1-0.9,1.8c-0.1,0.6-0.2,1.7-0.2,3.4
		c0,1.7,0.1,2.8,0.2,3.4c0.1,0.7,0.4,1.3,0.9,1.8c0.7,0.7,1.6,1.1,2.6,1.1c1,0,1.9-0.4,2.6-1.1c0.5-0.5,0.8-1.1,0.9-1.8
		C24.1,13.4,24.2,12.3,24.2,10.6z"/>
	<path class="st1" d="M40.8,18.2h-1.5L31.2,6v12.2h-1.6V3h1.5l8.1,12.1V3h1.6V18.2z"/>
	<path class="st1" d="M54.1,4.5h-4.4v13.7h-1.6V4.5h-4.4V3h10.4V4.5z"/>
	<path class="st1" d="M67.5,18.2h-1.7l-1.2-3.4h-6.6l-1.2,3.4H55L60.5,3h1.4L67.5,18.2z M64,13.4l-2.8-8l-2.9,8H64z"/>
	<path class="st1" d="M79.9,13.8c-0.2,1.4-0.8,2.5-1.8,3.3c-1,0.8-2.1,1.2-3.5,1.2c-1.5,0-2.8-0.5-3.9-1.6c-0.7-0.7-1.1-1.4-1.3-2.4
		c-0.1-0.6-0.2-1.9-0.2-3.7c0-1.9,0.1-3.1,0.2-3.7c0.2-0.9,0.6-1.7,1.3-2.4c1.1-1.1,2.3-1.6,3.9-1.6c1.4,0,2.5,0.4,3.5,1.2
		C79,4.9,79.6,6,79.9,7.4h-1.7C78,6.5,77.6,5.7,77,5.2c-0.6-0.6-1.4-0.8-2.4-0.8c-1.1,0-1.9,0.4-2.6,1.1c-0.5,0.5-0.8,1.1-0.9,1.8
		C71,7.8,71,9,71,10.6c0,1.7,0.1,2.8,0.2,3.4c0.1,0.7,0.4,1.3,0.9,1.8c0.7,0.7,1.6,1.1,2.6,1.1c0.9,0,1.7-0.3,2.4-0.8
		s1.1-1.3,1.3-2.2H79.9z"/>
	<path class="st1" d="M92.3,4.5h-4.4v13.7h-1.6V4.5h-4.4V3h10.4V4.5z"/>
</g>
</svg>
