<?xml version="1.0" encoding="utf-8"?>
<!-- Generator: Adobe Illustrator 26.3.1, SVG Export Plug-In . SVG Version: 6.00 Build 0)  -->
<svg version="1.1" id="Layer_1" xmlns="http://www.w3.org/2000/svg" xmlns:xlink="http://www.w3.org/1999/xlink" x="0px" y="0px"
	 viewBox="0 0 145 21" style="enable-background:new 0 0 145 21;" xml:space="preserve">
<style type="text/css">
	.st0{fill:#FF577F;}
</style>
<path class="st0" d="M0,20h3.9v-5.3l1.9-2.4L11,20h4.7l-7-10.3l6.9-8.3h-4.7L4.2,9.6H3.9V1.4H0V20z"/>
<path class="st0" d="M23.5,20.3c3.5,0,5.8-1.7,6.3-4.3l-3.6-0.2c-0.4,1.1-1.4,1.6-2.7,1.6c-1.9,0-3.2-1.3-3.2-3.4v0h9.5V13
	c0-4.7-2.9-7.1-6.6-7.1c-4.1,0-6.8,2.9-6.8,7.2C16.5,17.5,19.1,20.3,23.5,20.3z M20.3,11.6c0.1-1.6,1.3-2.9,3-2.9
	c1.7,0,2.8,1.2,2.9,2.9H20.3z"/>
<path class="st0" d="M36.8,11.9c0-1.8,1.1-2.9,2.6-2.9c1.6,0,2.5,1,2.5,2.7V20h3.9v-8.9c0-3.3-1.9-5.3-4.8-5.3c-2.1,0-3.6,1-4.2,2.6
	h-0.2V6.1h-3.7v14h3.9V11.9z"/>
<path class="st0" d="M49.3,20H61v-3.1h-6.7v-0.1l6.4-8.3V6.1H49.5v3.1h6.6v0.1l-6.8,8.5V20z"/>
<path class="st0" d="M64.5,20h3.9v-14h-3.9V20z M66.5,4.3c1.2,0,2.1-0.9,2.1-2c0-1.1-0.9-2-2.1-2c-1.1,0-2.1,0.9-2.1,2
	C64.4,3.4,65.3,4.3,66.5,4.3z"/>
<path class="st0" d="M78.4,20.3c3.5,0,5.8-1.7,6.3-4.3l-3.6-0.2c-0.4,1.1-1.4,1.6-2.7,1.6c-1.9,0-3.2-1.3-3.2-3.4v0h9.5V13
	c0-4.7-2.9-7.1-6.6-7.1c-4.1,0-6.8,2.9-6.8,7.2C71.4,17.5,74.1,20.3,78.4,20.3z M75.3,11.6c0.1-1.6,1.3-2.9,3-2.9
	c1.7,0,2.8,1.2,2.9,2.9H75.3z"/>
<path class="st0" d="M94.3,20h3.9v-7.7h8V20h3.9V1.4h-3.9v7.7h-8V1.4h-3.9V20z"/>
<path class="st0" d="M122.9,14.1c0,1.9-1.3,2.9-2.7,2.9c-1.5,0-2.4-1-2.4-2.7V6.1h-3.9V15c0,3.3,1.9,5.3,4.7,5.3
	c2.1,0,3.6-1.1,4.2-2.7h0.1V20h3.7v-14h-3.9V14.1z"/>
<path class="st0" d="M130.4,20h3.8v-2.2h0.2c0.5,1.2,1.7,2.5,4,2.5c3.2,0,5.7-2.5,5.7-7.2c0-4.8-2.6-7.2-5.7-7.2
	c-2.3,0-3.5,1.4-4,2.5h-0.1v-7h-3.9V20z M134.2,13c0-2.5,1.1-4.1,2.9-4.1c1.9,0,2.9,1.7,2.9,4.1c0,2.4-1,4.1-2.9,4.1
	C135.3,17.2,134.2,15.5,134.2,13z"/>
</svg>
