<?xml version="1.0" encoding="utf-8"?>
<!-- Generator: Adobe Illustrator 26.3.1, SVG Export Plug-In . SVG Version: 6.00 Build 0)  -->
<svg version="1.1" id="Layer_1" xmlns="http://www.w3.org/2000/svg" xmlns:xlink="http://www.w3.org/1999/xlink" x="0px" y="0px"
	 viewBox="0 0 145 142" style="enable-background:new 0 0 145 142;" xml:space="preserve">
<style type="text/css">
	.st0{opacity:0.949;fill-rule:evenodd;clip-rule:evenodd;fill:#11C945;enable-background:new    ;}
	.st1{opacity:0.947;fill-rule:evenodd;clip-rule:evenodd;fill:#11C945;enable-background:new    ;}
	.st2{opacity:0.938;fill-rule:evenodd;clip-rule:evenodd;fill:#11C945;enable-background:new    ;}
</style>
<g>
	<path class="st0" d="M-0.5,35.5c4.7,0,9.3,0,14,0c0,7.7,0,15.3,0,23c4.3,0,8.7,0,13,0c0-7.7,0-15.3,0-23c4.7,0,9.3,0,14,0
		c0,19.3,0,38.7,0,58c-4.7,0-9.3,0-14,0c0-8,0-16,0-24c-4.3,0-8.7,0-13,0c0,8,0,16,0,24c-4.7,0-9.3,0-14,0
		C-0.5,74.2-0.5,54.8-0.5,35.5z"/>
</g>
<g>
	<path class="st1" d="M51.5,35.5c4.7,0,9.3,0,14,0c-0.2,14,0,28,0.5,42c3.3,7.8,7.9,8.8,14,3c1.4-15,1.9-30,1.5-45c3.7,0,7.3,0,11,0
		c0.4,16.7-0.1,33.4-1.5,50c-4.5,6.7-10.8,9.7-19,9c-12.5,1.1-19.2-4.6-20-17C51.5,63.5,51.3,49.5,51.5,35.5z"/>
</g>
<g>
	<path class="st2" d="M144.5,71.5c0,3.7,0,7.3,0,11c-1.8,5.3-5.5,8.8-11,10.5c-10.3,0.5-20.7,0.7-31,0.5c0-19.3,0-38.7,0-58
		c11.4-0.4,22.7,0.1,34,1.5c7.4,6.9,8.5,14.7,3.5,23.5c-1.4,1-2.9,1.8-4.5,2.5C139.7,64.7,142.7,67.5,144.5,71.5z M116.5,45.5
		c3.4-0.2,6.8,0.3,10,1.5c2.7,3.3,2.7,6.7,0,10c-3.2,1.2-6.6,1.7-10,1.5C116.5,54.2,116.5,49.8,116.5,45.5z M116.5,68.5
		c5.2-0.8,9.7,0.5,13.5,4c1.2,3.8,0.3,6.9-2.5,9.5c-3.6,1.2-7.2,1.7-11,1.5C116.5,78.5,116.5,73.5,116.5,68.5z"/>
</g>
</svg>
